<?xml version="1.0" standalone="no"?><!DOCTYPE svg PUBLIC "-//W3C//DTD SVG '1.1//EN"
        "http://www.w3.org/Graphics/SVG/1.1/DTD/svg11.dtd">
<svg class="icon" width="64px" height="64.00px" viewBox="0 0 1024 1024" version="1.1"
     xmlns="http://www.w3.org/2000/svg">
    <path fill="#e6e6e6"
          d="M836.31328437 311.82742988h-49.68010722v-149.72362295A99.86264209 99.86264209 0 0 0 686.55951582 62.05024268H186.91470459A99.86264209 99.86264209 0 0 0 86.83099473 162.12390401v699.79213476a99.87269062 99.87269062 0 0 0 100.08370986 100.08370987h650.14217314a99.86264209 99.86264209 0 0 0 100.08371075-100.08370987V411.90109121c-0.72349628-55.43793457-45.35922393-100.07366133-100.7971585-100.07366133zM136.50105253 861.91603877V162.07366133a49.78059258 49.78059258 0 0 1 49.68010724-49.68010635h499.65485976a49.78059258 49.78059258 0 0 1 49.73034902 49.68010635v750.20578682h-548.65166396a50.54428301 50.54428301 0 0 1-50.41365206-50.36340938z m750.20578682 0a49.78059258 49.78059258 0 0 1-49.64996162 49.6399122h-49.70020341V362.22098487h49.70020341a49.78059258 49.78059258 0 0 1 49.68010724 49.68010635z m0 0M236.58476328 369.42580566a12.12861797 12.12861797 0 0 0 12.22910332-12.24920038v-79.19274288l56.88492803 85.68411592a12.40997783 12.40997783 0 0 0 10.04856592 5.75782735 6.45117891 6.45117891 0 0 0 3.59738613-0.7234963c5.02428252-1.43694492 8.64176572-6.48132451 8.64176572-12.23915273V236.94552178a12.23915273 12.23915273 0 0 0-24.47830459 0v78.47929424l-56.88492802-85.67406739c-3.59738613-5.75782823-11.51565557-7.20482167-17.2734838-3.59738613a12.3999293 12.3999293 0 0 0-5.75782822 10.04856503v120.27127765c0.71344776 7.20482167 5.75782823 12.96264902 12.96264903 12.96264902z m149.72362208 1e-8h79.95643417a12.23915273 12.23915273 0 0 0 0-24.4783046h-67.68713584v-35.2805124h67.68713584a12.12861797 12.12861797 0 0 0 12.2291042-12.23915273 12.61094942 12.61094942 0 0 0-12.2291042-12.23915274h-67.68713584v-35.23026972h67.68713584a12.12861797 12.12861797 0 0 0 12.2291042-12.23915273 12.61094942 12.61094942 0 0 0-12.2291042-12.28939542h-79.93633711a12.13866651 12.13866651 0 0 0-12.23915273 12.23915274v120.23108349c0 5.76787675 5.76787675 11.52570411 12.23915273 11.52570411z m146.8798787 0c5.75782823 0.72349628 10.79215927-2.88393838 12.95260049-8.64176573l30.24618135-86.41766162 30.94958144 86.41766162a12.33963809 12.33963809 0 0 0 11.52570411 8.64176572h1.43694492c5.75782823-0.72349628 10.04856503-5.02428252 11.5257041-10.80220693l17.32372646-120.2310835a12.72349336 12.72349336 0 1 0-25.19175234-3.59738701l-10.04856592 69.82747998-25.98558925-72.7516125c-3.59738613-10.04856503-20.15742217-10.04856503-23.7548083 0l-25.92529893 71.99797061-10.04856504-69.83752852c-1.43694492-6.48132451-7.19477315-11.52570411-14.39959395-10.80220781-6.47127597 0.72349628-11.51565557 7.20482167-10.79215927 14.39959395l17.27348378 120.23108349c2.16044121 6.48132451 7.20482167 10.80220781 12.96264903 11.52570411zM636.87940948 511.97475342H236.58476328a25.20180175 25.20180175 0 0 0 0 50.40360263H636.87940948a25.51330722 25.51330722 0 0 0 25.20180175-25.20180175c-0.72349628-13.68614619-11.51565557-25.20180175-25.20180176-25.20180088z m-1e-8 125.27546309H236.58476328a25.20180175 25.20180175 0 1 0 0 50.40360351H636.87940948a25.20180175 25.20180175 0 0 0-1e-8-50.40360351z m0 124.60220947H236.58476328a25.20180175 25.20180175 0 0 0 0 50.40360352H636.87940948a25.20180175 25.20180175 0 1 0-1e-8-50.40360352z m0 0"/>
</svg>