<?xml version="1.0" standalone="no"?><!DOCTYPE svg PUBLIC "-//W3C//DTD SVG 1.1//EN"
        "http://www.w3.org/Graphics/SVG/1.1/DTD/svg11.dtd">
<svg class="icon" width="200px" height="200.00px" viewBox="0 0 1024 1024" version="1.1"
     xmlns="http://www.w3.org/2000/svg">
    <path d="M217.896 226.764c-56.81 1.282-172.542-43.188-172.746-52.172-0.204-8.968 113.374-58.67 170.2-59.966 56.828-1.296 103.452 22.766 104.154 53.716 0.718 30.968-44.782 57.124-101.608 58.422z"
          fill="#A0D468"/>
    <path d="M384.002 64.016c0-11.782-9.546-21.328-21.326-21.328a21.24 21.24 0 0 0-14.484 5.688l-0.016-0.016c-2.376 2.204-58.016 54.874-49.406 145.668l42.468-4.032c-6.546-69.124 34.28-108.764 36.03-110.42l-0.094 0.094-0.032-0.032a21.156 21.156 0 0 0 6.86-15.622z"
          fill="#434A54"/>
    <path d="M639.996 490.68c0 176.73-143.262 320.01-319.992 320.01S0.012 667.41 0.012 490.68 143.274 170.686 320.004 170.686s319.992 143.264 319.992 319.994z"
          fill="#E9573F"/>
    <path d="M42.682 490.68c0-169.558 131.874-308.292 298.65-319.276a321.71 321.71 0 0 0-21.328-0.718C143.274 170.686 0.012 313.95 0.012 490.68s143.262 320.01 319.992 320.01c7.172 0 14.282-0.282 21.328-0.75-166.778-10.97-298.65-149.718-298.65-319.26z"
          opacity=".1"/>
    <path d="M277.332 704.002c0 11.782-9.544 21.312-21.326 21.312s-21.328-9.532-21.328-21.312c0-11.78 9.546-21.31 21.328-21.31s21.326 9.53 21.326 21.31zM320.004 746.69c0 11.75-9.546 21.312-21.328 21.312s-21.344-9.562-21.344-21.312c0-11.812 9.562-21.376 21.344-21.376s21.328 9.562 21.328 21.376zM362.676 704.002c0 11.782-9.562 21.312-21.344 21.312s-21.328-9.532-21.328-21.312c0-11.78 9.546-21.31 21.328-21.31s21.344 9.53 21.344 21.31z"
          opacity=".1"/>
    <path d="M703.996 959.998c-79.782 0-154.78-31.062-211.184-87.468-56.404-56.402-87.482-131.402-87.482-211.212 0-79.748 31.078-154.762 87.482-211.168 56.404-56.404 131.402-87.466 211.184-87.466 79.778 0 154.778 31.062 211.184 87.466 56.402 56.406 87.496 131.42 87.496 211.168 0 79.81-31.094 154.81-87.496 211.212-56.406 56.406-131.406 87.468-211.184 87.468z"
          fill="#E6E9ED"/>
    <path d="M703.996 341.338c-176.73 0-319.994 143.278-319.994 319.978 0 176.746 143.264 319.994 319.994 319.994 176.746 0 319.992-143.248 319.992-319.994 0-176.698-143.246-319.978-319.992-319.978z m196.122 516.1c-25.5 25.498-55.188 45.498-88.188 59.436-34.186 14.468-70.498 21.812-107.934 21.812-37.438 0-73.782-7.344-107.938-21.812-32.998-13.938-62.684-33.938-88.168-59.436-25.484-25.5-45.484-55.124-59.452-88.186-14.454-34.124-21.766-70.438-21.766-107.936 0-37.436 7.312-73.748 21.766-107.936 13.966-33 33.966-62.654 59.452-88.138 25.484-25.484 55.17-45.484 88.168-59.452 34.156-14.454 70.5-21.782 107.938-21.782 37.436 0 73.748 7.328 107.934 21.782 33 13.968 62.688 33.968 88.188 59.452 25.466 25.484 45.466 55.138 59.436 88.138 14.436 34.188 21.748 70.5 21.748 107.936 0 37.498-7.312 73.81-21.748 107.936-13.97 33.062-33.97 62.686-59.436 88.186z"
          fill="#FC6E51"/>
    <path d="M703.996 895.998c-129.374 0-234.668-105.246-234.668-234.682 0-129.374 105.294-234.636 234.668-234.636 129.372 0 234.682 105.262 234.682 234.636 0 129.436-105.31 234.682-234.682 234.682z"
          fill="#FC6E51"/>
    <path d="M703.996 405.338c-141.374 0-255.994 114.622-255.994 255.978 0 141.404 114.622 255.994 255.994 255.994s255.994-114.59 255.994-255.994c0-141.358-114.622-255.978-255.994-255.978z m21.312 43.716c41.904 4.14 81.184 20.406 113.684 47.094l-113.684 113.67v-160.764z m-72.812 190.95h-160.778c4.124-41.874 20.39-81.154 47.094-113.686l113.684 113.686z m-83.53-143.856c32.53-26.688 71.81-42.954 113.716-47.094v160.764l-113.716-113.67z m83.53 186.544l-113.684 113.686c-26.704-32.562-42.968-71.812-47.094-113.686h160.778z m30.188 30.154v160.778c-41.906-4.124-81.188-20.404-113.716-47.092l113.716-113.686z m42.624 0l113.684 113.686c-32.5 26.688-71.78 42.966-113.684 47.092v-160.778z m30.186-30.154h160.778c-4.124 41.874-20.404 81.124-47.092 113.686l-113.686-113.686z m0-42.688l113.686-113.686c26.688 32.532 42.968 71.812 47.092 113.686h-160.778z"
          fill="#E9573F"/>
    <path d="M746.682 661.316c0 23.562-19.124 42.686-42.686 42.686s-42.688-19.124-42.688-42.686 19.124-42.624 42.688-42.624 42.686 19.062 42.686 42.624zM661.308 810.69c0 11.748-9.532 21.31-21.312 21.31s-21.312-9.562-21.312-21.31c0-11.812 9.532-21.376 21.312-21.376s21.312 9.562 21.312 21.376zM853.304 704.002c0 11.782-9.532 21.312-21.312 21.312s-21.312-9.532-21.312-21.312c0-11.78 9.532-21.31 21.312-21.31s21.312 9.53 21.312 21.31z"
          fill="#E6E9ED"/>
    <path d="M703.996 341.338c-14.468 0-28.688 0.984-42.688 2.844 156.558 20.858 277.37 154.904 277.37 317.134 0 162.278-120.81 296.306-277.37 317.182 14 1.876 28.218 2.812 42.688 2.812 176.746 0 319.992-143.248 319.992-319.994 0-176.698-143.246-319.978-319.992-319.978z"
          fill="#FFFFFF" opacity=".2"/>
</svg>