<?xml version="1.0" standalone="no"?><!DOCTYPE svg PUBLIC "-//W3C//DTD SVG 1.1//EN"
        "http://www.w3.org/Graphics/SVG/1.1/DTD/svg11.dtd">
<svg class="icon" width="200px" height="200.00px" viewBox="0 0 1024 1024" version="1.1"
     xmlns="http://www.w3.org/2000/svg">
    <path d="M511.98 255.98c-8.16 0-15.13-6.19-15.91-14.47-0.34-3.53-7.63-86.8 39.31-138.39C559 77.16 591.66 64 632.42 64c8.84 0 16 7.16 16 16s-7.16 16-16 16c-31.33 0-55.98 9.61-73.27 28.56-37.44 41.02-31.3 113.23-31.22 113.95 0.8 8.8-5.67 16.58-14.45 17.41-0.5 0.05-1.01 0.06-1.5 0.06z"
          fill="#935738"/>
    <path d="M762.1 440.57c-15.94-19.94-25.63-43.63-30.62-68.67C711.01 269.32 620.6 192 512 192s-199.01 77.32-219.47 179.9c-5.07 25.39-15.21 49.24-31.31 69.52-43.8 55.18-69.81 125.08-69.21 201.15 1.33 169.34 140.82 312.17 310.09 317.28C683.35 965.32 832 820.02 832 640c0-75.46-26.19-144.75-69.9-199.43z"
          fill="#FAD757"/>
</svg>