<?xml version="1.0" standalone="no"?><!DOCTYPE svg PUBLIC "-//W3C//DTD SVG 1.1//EN"
        "http://www.w3.org/Graphics/SVG/1.1/DTD/svg11.dtd">
<svg class="icon" width="64px" height="64.00px" viewBox="0 0 1024 1024" version="1.1"
     xmlns="http://www.w3.org/2000/svg">
    <path fill="#e6e6e6"
          d="M591.04 268.224l3.776 2.176c69.632 39.552 124.416 70.656 163.392 99.2 39.296 28.672 68.352 58.624 78.72 98.176 7.68 28.992 7.68 59.52 0 88.448-10.368 39.552-39.424 69.504-78.72 98.24-39.04 28.48-93.76 59.52-163.392 99.2l-3.84 2.112c-67.264 38.208-120.256 68.352-163.328 86.656-43.456 18.496-83.008 27.84-121.536 16.896a170.816 170.816 0 0 1-74.688-44.16c-28.16-28.352-39.424-67.584-44.8-114.752-5.312-46.912-5.312-108.224-5.312-186.24v-4.288c0-78.08 0-139.392 5.312-186.24 5.376-47.232 16.64-86.464 44.8-114.88a170.88 170.88 0 0 1 74.688-44.16c38.528-10.88 78.08-1.472 121.6 16.96 43.008 18.304 96 48.448 163.328 86.656zM402.56 240.448c-39.36-16.704-62.016-19.072-79.04-14.208a106.88 106.88 0 0 0-46.72 27.584c-12.672 12.8-21.76 34.048-26.624 76.992-4.864 42.88-4.928 100.544-4.928 181.184s0.064 138.368 4.928 181.184c4.864 42.88 13.952 64.192 26.624 76.992 12.992 13.12 29.12 22.592 46.72 27.584 17.024 4.864 39.68 2.56 79.04-14.208 39.296-16.704 89.088-44.992 158.72-84.48 71.936-40.96 123.456-70.208 159.104-96.32 35.84-26.112 49.92-45.056 54.592-62.784a109.888 109.888 0 0 0 0-55.936c-4.672-17.728-18.816-36.672-54.592-62.784-35.648-26.048-87.168-55.424-159.168-96.32-69.568-39.488-119.36-67.712-158.72-84.48z"/>
</svg>